<svg id="Layer_1" data-name="Layer 1" xmlns="http://www.w3.org/2000/svg" viewBox="0 0 782.2 169.88"><defs><style>.cls-1{fill:#06776f;}</style></defs><path class="cls-1" d="M341.79,116.56s0-.07-.05-.1v.1Z"/><path class="cls-1" d="M404.83,81.37l-18.82-4C359.9,71.8,349.5,61.92,349.5,42.78c0-20.38,16.57-39.86,41-39.86,26.09,0,42.78,20.12,45.59,45.27a8.17,8.17,0,0,0,.53,5.45,12.54,12.54,0,0,0,3.84,4.77c.6.49,1.25.93,1.86,1.37.08-.05.11-.05.12-.07l.22-.24a18.34,18.34,0,0,0,3-5.16,9.78,9.78,0,0,0,.65-4.4A7,7,0,0,0,445,46.38C441.68,17.59,421.29.18,390.51.18,360.74.18,340,18.08,340,43.4c0,22.53,14.05,34.34,42.69,40.51l18.54,4c26.68,5.86,36.23,17.52,36.23,36.66,0,21.92-16.29,41.2-44.94,41.2-27.72,0-46.05-21.67-48.7-47.44a8,8,0,0,0-.46-5.66,12.57,12.57,0,0,0-3.84-4.78c-.6-.48-1.25-.92-1.85-1.36l-.13.06-.21.25a18.46,18.46,0,0,0-3,5.15,9.94,9.94,0,0,0-.65,4.4,7,7,0,0,0,1.34,3.51c3.77,29.8,25.28,47.89,57.5,47.89,33.7,0,54.48-17,54.48-44.46C447,100.2,434.32,87.54,404.83,81.37Zm-63,35.19h0v-.1S341.77,116.53,341.79,116.56Z"/><path class="cls-1" d="M220.47,0a64,64,0,0,1,29,6.85,81.09,81.09,0,0,1,24.11,18.4A88.53,88.53,0,0,1,290,52a85.85,85.85,0,0,1,6.06,32.1,84.57,84.57,0,0,1-6.17,32.1,90.18,90.18,0,0,1-16.56,26.73,79,79,0,0,1-24.22,18.28,65.2,65.2,0,0,1-28.9,6.73,64,64,0,0,1-29-6.85,79.44,79.44,0,0,1-24-18.39,89.49,89.49,0,0,1-16.34-26.84,87.68,87.68,0,0,1,16.45-90.7A81.91,81.91,0,0,1,191.46,6.85,64,64,0,0,1,220.47,0ZM157,84.07a93.2,93.2,0,0,0,5.14,31A90.68,90.68,0,0,0,175.92,141a69.1,69.1,0,0,0,20.22,17.82,48,48,0,0,0,48.66,0A69.1,69.1,0,0,0,265,141a90.44,90.44,0,0,0,13.82-26.05A94.85,94.85,0,0,0,284,83.62a96.36,96.36,0,0,0-4.91-30.85A90.11,90.11,0,0,0,265.7,27,66.89,66.89,0,0,0,245.83,9.14a47.91,47.91,0,0,0-24.45-6.63,49.13,49.13,0,0,0-24.67,6.63,70.67,70.67,0,0,0-20.45,17.7,89.32,89.32,0,0,0-14,25.93A93.28,93.28,0,0,0,157,84.07Z"/><path class="cls-1" d="M544.92,0a64.05,64.05,0,0,1,29,6.85A81,81,0,0,1,598,25.25,88.55,88.55,0,0,1,614.49,52a86,86,0,0,1,6,32.1,84.38,84.38,0,0,1-6.17,32.1,90.18,90.18,0,0,1-16.56,26.73,78.76,78.76,0,0,1-24.22,18.28,65.14,65.14,0,0,1-28.9,6.73,64,64,0,0,1-29-6.85,79.56,79.56,0,0,1-24-18.39,89.27,89.27,0,0,1-16.33-26.84,87.68,87.68,0,0,1,16.45-90.7,81.74,81.74,0,0,1,24.1-18.28A64,64,0,0,1,544.92,0ZM481.41,84.07a93.46,93.46,0,0,0,5.14,31A90.68,90.68,0,0,0,500.37,141a69.1,69.1,0,0,0,20.22,17.82,48,48,0,0,0,48.66,0A69.1,69.1,0,0,0,589.47,141a90,90,0,0,0,13.82-26.05,94.85,94.85,0,0,0,5.14-31.29,96.36,96.36,0,0,0-4.91-30.85A90.34,90.34,0,0,0,590.16,27,67,67,0,0,0,570.28,9.14a47.9,47.9,0,0,0-24.44-6.63,49.14,49.14,0,0,0-24.68,6.63,70.64,70.64,0,0,0-20.44,17.7,89.08,89.08,0,0,0-14.05,25.93A93,93,0,0,0,481.41,84.07Z"/><path class="cls-1" d="M117.25,53.87A88.55,88.55,0,0,0,100.8,27.15,80.92,80.92,0,0,0,76.7,8.75a64.15,64.15,0,0,0-29-6.85l-1.53,0v0h-35a8.6,8.6,0,0,0-4.38.26A12.66,12.66,0,0,0,1.56,5.49C1,6,.51,6.63,0,7.18c0,.1,0,.12.05.14l.22.24a18.52,18.52,0,0,0,4.8,3.54,10.44,10.44,0,0,0,3,1V159.53a10.25,10.25,0,0,0-1.36.32,12.66,12.66,0,0,0-5.17,3.29c-.55.54-1,1.14-1.56,1.69,0,.1,0,.12.05.14l.22.24a18.52,18.52,0,0,0,4.8,3.54,10.71,10.71,0,0,0,3,1v0h.12a8.77,8.77,0,0,0,1.15.09,7.88,7.88,0,0,0,1.2-.09H46.15l1.3,0a65.15,65.15,0,0,0,28.9-6.74,78.76,78.76,0,0,0,24.22-18.28,90.18,90.18,0,0,0,16.56-26.73A84.3,84.3,0,0,0,123.3,86,86.08,86.08,0,0,0,117.25,53.87Zm-11.2,63a90,90,0,0,1-13.82,26A69.1,69.1,0,0,1,72,160.68a48.08,48.08,0,0,1-24.33,6.62c-.5,0-1,0-1.51-.05v0H17.87V4.49h28.3c.8,0,1.61-.07,2.43-.07A47.86,47.86,0,0,1,73,11,66.92,66.92,0,0,1,92.92,28.86a90,90,0,0,1,13.36,25.82,96,96,0,0,1,4.91,30.84A95,95,0,0,1,106.05,116.82Z"/><path class="cls-1" d="M780.64,163.14a12.7,12.7,0,0,0-5.16-3.29,9.73,9.73,0,0,0-1.9-.39v-147a10.64,10.64,0,0,0,2.84-1A18.29,18.29,0,0,0,781.22,8l.22-.24s0,0,0-.13c-.51-.55-1-1.15-1.56-1.69a12.69,12.69,0,0,0-5.17-3.3,10.59,10.59,0,0,0-1.18-.28h-.06a8,8,0,0,0-3,0H763.8V165L653,2.49h-8.52a9.16,9.16,0,0,0-3.61.39,12.66,12.66,0,0,0-5.17,3.29c-.55.55-1.06,1.14-1.56,1.69a.76.76,0,0,0,0,.14l.22.24a18.64,18.64,0,0,0,4.79,3.54,9.92,9.92,0,0,0,4,1.11v146.6a10.2,10.2,0,0,0-1.63.36,12.66,12.66,0,0,0-5.17,3.29c-.55.54-1,1.14-1.56,1.69,0,.1,0,.12,0,.14l.22.24a18.52,18.52,0,0,0,4.8,3.54,9.73,9.73,0,0,0,4.3,1.13,6.79,6.79,0,0,0,1.63-.17H653V7L763.8,169.7h7.41a6.65,6.65,0,0,0,1.62.17,9.81,9.81,0,0,0,4.31-1.13,18.64,18.64,0,0,0,4.79-3.54l.22-.24a.76.76,0,0,0,.05-.14C781.7,164.28,781.19,163.68,780.64,163.14Z"/><path class="cls-1" d="M313,155.1a8.45,8.45,0,0,0-1.43-2.82,16,16,0,0,0-3.68-3.44.22.22,0,0,0-.31,0,17.88,17.88,0,0,0-3.24,3.06,9.16,9.16,0,0,0-2,3.95,5,5,0,0,0,.28,2.92,6.49,6.49,0,0,0,1.63,2.26,10.75,10.75,0,0,0,1.7,1.27l.09,0,0,0v0h3.42l.31-.18a9.05,9.05,0,0,0,1.44-1.12,6.7,6.7,0,0,0,1.15-1.42A5.63,5.63,0,0,0,313,155.1Z"/></svg>